<svg xmlns="http://www.w3.org/2000/svg" viewBox="0 0 64 64"><defs><style>.cls-1{fill:#0090e0;}.cls-2{fill:#74d800;}</style></defs><title>Space Earth</title><g id="Layer_2" data-name="Layer 2"><g id="Layer_1-2" data-name="Layer 1"><path class="cls-1" d="M64,32.73A32,32,0,1,1,0,31.27a32.44,32.44,0,0,1,.69-5.94A32,32,0,0,1,64,31.73C64,32.06,64,32.4,64,32.73Z"/><g id="_Group_" data-name="&lt;Group&gt;"><path class="cls-2" d="M58.56,14.13l-.92,2.17a2.18,2.18,0,0,1-.21.37L53,23a2,2,0,0,1-1.68.85l-3.64-.08,1.17,3.81a2,2,0,0,1-.27,1.73l-4.43,6.32a2,2,0,0,1-3.34-.08l-3.55-5.6-7.48-.17A2,2,0,0,1,28,28.62L23.93,20a2,2,0,0,1,.18-2l3.12-4.45L20.78,10.1,20.65,10,14.51,6.14a2.08,2.08,0,0,1-.58-.56,32,32,0,0,1,44.63,8.55Z"/><path class="cls-2" d="M31.48,49.06l-9.59-.22.66,1.4a2,2,0,0,1,.07,1.53L19.2,61.33A32,32,0,0,1,0,31.27a32.44,32.44,0,0,1,.69-5.94,1.84,1.84,0,0,1,.6.28l5.56,3.9,5.81.13a2,2,0,0,1,1.41.61l5.7,6,7.73.18a2,2,0,0,1,1.76,1.15l4.08,8.66A2,2,0,0,1,31.48,49.06Z"/><path class="cls-2" d="M64,32.73A32,32,0,0,1,50,58.46a1.89,1.89,0,0,1-.32-.77l-.91-5.18-3.92-6.17A2,2,0,0,1,45,44l8.8-10.49a2,2,0,0,1,1.3-.71l8.57-1H64C64,32.06,64,32.4,64,32.73Z"/></g></g></g></svg>