<?xml version="1.0" encoding="utf-8"?>
<!-- Generator: Adobe Illustrator 16.0.0, SVG Export Plug-In . SVG Version: 6.00 Build 0)  -->
<!DOCTYPE svg PUBLIC "-//W3C//DTD SVG 1.1//EN" "http://www.w3.org/Graphics/SVG/1.1/DTD/svg11.dtd">
<svg version="1.1" id="Capa_1" xmlns="http://www.w3.org/2000/svg" xmlns:xlink="http://www.w3.org/1999/xlink" x="0px" y="0px"
	 width="32px" height="32px" viewBox="0 0 32 32" enable-background="new 0 0 32 32" xml:space="preserve">
<path fill="#FFD878" d="M19.5,23.5c0,4-4,7-4,7s-4-3-4-7H19.5z"/>
<path fill="#E57C5C" d="M15.5,28.488c-0.762-0.765-1.799-2.511-2.261-3.988h4.521C17.299,25.978,16.262,27.724,15.5,28.488z"/>
<path fill="#AAAAAA" d="M20.5,19.5v3c0,0-1,2-5,2s-5-2-5-2v-3"/>
<path fill="#BFBFBF" d="M20.5,10.5v9c0,0-1,2-5,2s-5-2-5-2v-9c0-3,4-8,5-8S20.5,7.5,20.5,10.5z"/>
<path fill="#EF6565" d="M18.5,5.5c0,0-1,1-3,1s-3-1-3-1s1.625-3,3-3S18.5,5.5,18.5,5.5z"/>
<circle fill="#ACF0F2" cx="15.5" cy="12.5" r="2.5"/>
<polyline fill="#EF6565" points="10.5,20.5 6.5,24.5 6.5,15.5 10.691,9.232 "/>
<polyline fill="#EF6565" points="20.5,20.5 24.5,24.5 24.5,15.5 20.316,9.26 "/>
<path fill="none" stroke="#4D5152" stroke-miterlimit="10" d="M20.5,10.5v9c0,0-1,2-5,2s-5-2-5-2v-9c0-3,4-8,5-8S20.5,7.5,20.5,10.5
	z"/>
<path fill="none" stroke="#4D5152" stroke-miterlimit="10" d="M20.5,19.5v3c0,0-1,2-5,2s-5-2-5-2v-3"/>
<path fill="none" stroke="#4D5152" stroke-miterlimit="10" d="M12.5,5.5c0,0,1,1,3,1s3-1,3-1"/>
<circle fill="none" stroke="#4D5152" stroke-miterlimit="10" cx="15.5" cy="12.5" r="2.5"/>
<polyline fill="none" stroke="#4D5152" stroke-miterlimit="10" points="10.5,20.5 6.5,24.5 6.5,15.5 10.691,9.232 "/>
<polyline fill="none" stroke="#4D5152" stroke-miterlimit="10" points="20.5,20.5 24.5,24.5 24.5,15.5 20.316,9.26 "/>
<path fill="none" stroke="#4D5152" stroke-miterlimit="10" d="M19.5,23.5c0,4-4,7-4,7s-4-3-4-7"/>
</svg>
