<svg xmlns="http://www.w3.org/2000/svg" viewBox="0 0 64 64"><defs><style>.cls-1{fill:#b0bec5;}.cls-2{fill:#cfd8dd;}.cls-3{fill:#61747c;}.cls-4{fill:#fff;opacity:0.2;}.cls-5{fill:#00cde2;}</style></defs><title>Space Astronaut</title><g id="Layer_2" data-name="Layer 2"><g id="Layer_1-2" data-name="Layer 1"><circle class="cls-1" cx="10" cy="26" r="10"/><circle class="cls-1" cx="54" cy="26" r="10"/><path class="cls-2" d="M58,26c0,14.36-6,26-26,26S6,40.36,6,26a26,26,0,0,1,52,0Z"/><path class="cls-3" d="M52,26c0,11-6,16-20,16S12,37,12,26s6-16,20-16S52,15,52,26Z"/><path class="cls-4" d="M37.72,21.49,27.48,23.68a3.58,3.58,0,0,0-2.29,1.6L23.56,27.9A3.55,3.55,0,0,1,17,26.11V26c0-8.28,4.5-12,15-12a30.41,30.41,0,0,1,5.7.47A3.58,3.58,0,0,1,37.72,21.49Z"/><path class="cls-2" d="M8,52H56a8,8,0,0,1,8,8v2a2,2,0,0,1-2,2H2a2,2,0,0,1-2-2V60A8,8,0,0,1,8,52Z"/><rect class="cls-5" x="10" y="46" width="44" height="6" rx="3" ry="3"/></g></g></svg>