<?xml version="1.0" ?><!DOCTYPE svg  PUBLIC '-//W3C//DTD SVG 1.1//EN'  'http://www.w3.org/Graphics/SVG/1.1/DTD/svg11.dtd'><svg enable-background="new 0 0 512 512" height="512px" id="UFO" version="1.1" viewBox="0 0 512 512" width="512px" xml:space="preserve" xmlns="http://www.w3.org/2000/svg" xmlns:xlink="http://www.w3.org/1999/xlink"><circle cx="252.504" cy="189.5" fill="#598889" r="177.652"/><circle cx="252.504" cy="189.5" fill="#466C6F" r="151.264"/><path d="M418.062,465.152V337.51c0-6.831-5.589-12.42-12.42-12.42c-6.83,0-12.42,5.589-12.42,12.42v127.643H418.062z  " fill="#5AA096"/><path d="M464.476,465.152V312.02c0-6.831-5.59-12.42-12.42-12.42c-6.831,0-12.42,5.589-12.42,12.42v153.133H464.476z  " fill="#5AA096"/><path d="M424.897,465.152v-167.36c0-5.014-4.102-9.116-9.115-9.116c-5.013,0-9.115,4.103-9.115,9.116v167.36H424.897  z" fill="#466C6F"/><path d="M397.552,465.152V390.85c0-5.014-4.102-9.115-9.115-9.115s-9.115,4.102-9.115,9.115v74.303H397.552z" fill="#466C6F"/><path d="M124.268,465.152V390.85c0-5.014-4.102-9.115-9.115-9.115s-9.115,4.102-9.115,9.115v74.303H124.268z" fill="#466C6F"/><path d="M110.367,465.152V337.51c0-6.831-5.589-12.42-12.42-12.42c-6.831,0-12.419,5.589-12.419,12.42v127.643  H110.367z" fill="#5AA096"/><path d="M96.922,465.152v-163.36c0-5.014-4.103-9.116-9.116-9.116s-9.115,4.103-9.115,9.116v163.36H96.922z" fill="#466C6F"/><path d="M63.954,465.152V312.02c0-6.831-5.589-12.42-12.419-12.42c-6.831,0-12.42,5.589-12.42,12.42v153.133H63.954z  " fill="#5AA096"/><circle cx="323.616" cy="404.945" fill="#E5603C" r="8.27"/><circle cx="373.245" cy="344.883" fill="#66B2B2" r="8.27"/><circle cx="52.616" cy="281.945" fill="#66B2B2" r="8.269"/><circle cx="72.616" cy="185.946" fill="#66B2B2" r="8.269"/><circle cx="464.616" cy="193.946" fill="#66B2B2" r="8.27"/><circle cx="452.168" cy="115.499" fill="#66B2B2" r="19.347"/><path d="M427.566,274.745L78.98,274.196c-17.312,0.031-31.503-14.107-31.534-31.42l-0.007-3.875  c-0.031-17.313,14.108-31.503,31.42-31.534l348.585,0.548c17.313-0.031,31.504,14.108,31.535,31.42l0.006,3.876  C459.018,260.523,444.878,274.713,427.566,274.745z" fill="#52C9D5"/><path d="M78.989,274.196l348.586,0.548c16.902-0.03,30.742-13.568,31.359-30.321l-411.416-0.435  C48.197,260.739,62.085,274.227,78.989,274.196z" fill="#49BAC0"/><polygon fill="#FFD800" points="183.314,274.359 139.712,500.152 366.712,500.152 323.153,274.579 "/><path d="M401.208,207.874c-11.605-71.296-73.459-125.722-148.034-125.722c-74.413,0-136.159,54.189-147.957,125.256  L401.208,207.874z" fill="#F4F4F4"/><path d="M373.929,207.831c-11.275-55.775-60.564-97.769-119.665-97.769c-58.967,0-108.169,41.804-119.59,97.392  L373.929,207.831z" fill="#FFFFFF"/><circle cx="231.617" cy="359.946" fill="#FF7143" r="8.269"/><circle cx="165.701" cy="376.467" fill="#FF7143" r="19.347"/><circle cx="298.701" cy="318.467" fill="#FF7143" r="19.347"/><circle cx="233.556" cy="438.561" fill="#FF7143" r="26.297"/><polygon fill="#FFD326" points="253.212,147.794 258.404,158.315 270.016,160.002 261.614,168.192 263.598,179.756 253.212,174.296   242.828,179.756 244.811,168.192 236.41,160.002 248.02,158.315 "/><polygon fill="#FFD326" points="62.318,85.794 67.51,96.315 79.121,98.002 70.719,106.192 72.703,117.756 62.318,112.296   51.933,117.756 53.916,106.192 45.515,98.002 57.125,96.315 "/><polygon fill="#FFD326" points="426.317,38.152 431.51,48.673 443.12,50.36 434.72,58.55 436.702,70.114 426.317,64.654   415.933,70.114 417.916,58.55 409.515,50.36 421.125,48.673 "/></svg>