<svg xmlns="http://www.w3.org/2000/svg" viewBox="0 0 64 64"><defs><style>.cls-1{fill:#ff2400;}.cls-2{fill:#ba1d08;}</style></defs><title>Space Mars</title><g id="Layer_2" data-name="Layer 2"><g id="Layer_1-2" data-name="Layer 1"><path class="cls-1" d="M64,32c0,.24,0,.49,0,.73A31.82,31.82,0,1,1,64,32Z"/><path class="cls-2" d="M60.92,18.27a6.37,6.37,0,0,1-2.71,3L53,24.3a6.45,6.45,0,0,1-6,.17l-6.81-3.41a6.38,6.38,0,0,0-4.42-.48L24.3,23.42a6.38,6.38,0,0,1-4.42-.48l-5-2.47a6.43,6.43,0,0,1-1.67-1.21l-2.52-2.52A6.39,6.39,0,0,1,9.67,9.08a32,32,0,0,1,51.25,9.19Z"/><path class="cls-2" d="M20,41.08v3.49a6.4,6.4,0,0,1-2.86,5.33l-1.48,1a6.32,6.32,0,0,0-2.4,3L12.8,55a6.6,6.6,0,0,1-1.06,1.76A32,32,0,0,1,1.28,23L17.59,36.07A6.43,6.43,0,0,1,20,41.08Z"/><path class="cls-2" d="M64,32.73a31.82,31.82,0,0,1-.66,5.82l-2-.34a3.57,3.57,0,0,0-2.39.46l-8.1,4.86a3.46,3.46,0,0,0-1.25,1.27L43.16,56a3.51,3.51,0,0,1-3.49,1.74l-9.41-1.18a3.5,3.5,0,0,1-2.9-4.6l.46-1.39A3.49,3.49,0,0,0,28,49.43V38.65a3.51,3.51,0,0,1,2.55-3.38l8.89-2.54a10,10,0,0,1,5.14-.09l4.84,1.22a3.83,3.83,0,0,0,1.17.09Z"/></g></g></svg>