<?xml version="1.0" encoding="utf-8"?>
<!-- Generator: Adobe Illustrator 16.0.0, SVG Export Plug-In . SVG Version: 6.00 Build 0)  -->
<!DOCTYPE svg PUBLIC "-//W3C//DTD SVG 1.1//EN" "http://www.w3.org/Graphics/SVG/1.1/DTD/svg11.dtd">
<svg version="1.1" id="Capa_1" xmlns="http://www.w3.org/2000/svg" xmlns:xlink="http://www.w3.org/1999/xlink" x="0px" y="0px"
	 width="32px" height="32px" viewBox="0 0 32 32" enable-background="new 0 0 32 32" xml:space="preserve">
<path fill="#67DDE0" d="M16.287,27.728c-4.33,2.5-10.354,1.067-12.978-3.478S2.457,13.773,6.787,11.273
	c8.66-5,23.904-4.523,23.904-4.523S24.947,22.728,16.287,27.728z"/>
<path fill="#ACF0F2" d="M11.643,26.447c-2.577,0-4.94-1.321-6.168-3.447c-1.864-3.229-0.667-7.697,2.563-9.562
	c5.482-3.165,14.074-3.959,18.906-4.146c-2.109,4.739-6.445,13.119-11.906,16.271C14.035,26.142,12.861,26.447,11.643,26.447z"/>
<circle fill="#BFBFBF" cx="11.536" cy="19.5" r="7.5"/>
<circle fill="none" stroke="#4D5152" stroke-miterlimit="10" cx="11.536" cy="19.5" r="7.5"/>
<path fill="#AAAAAA" d="M10.22,16.22c-0.553-0.957-1.774-1.285-2.732-0.732l0,0c-0.957,0.553-1.284,1.775-0.731,2.731l0,0
	c0.552,0.957,1.774,1.285,2.731,0.732l0,0C10.445,18.398,10.772,17.176,10.22,16.22L10.22,16.22z"/>
<path fill="#AAAAAA" d="M8.688,20.566c-0.414-0.717-1.332-0.963-2.049-0.549l0,0c-0.718,0.414-0.964,1.332-0.55,2.049l0,0
	c0.415,0.719,1.332,0.964,2.05,0.55l0,0C8.856,22.202,9.104,21.285,8.688,20.566L8.688,20.566z"/>
<path fill="#AAAAAA" d="M13.354,23.646c-0.275-0.477-0.887-0.642-1.366-0.365l0,0c-0.479,0.276-0.642,0.889-0.366,1.365l0,0
	c0.277,0.479,0.888,0.643,1.366,0.367l0,0C13.467,24.736,13.63,24.126,13.354,23.646L13.354,23.646z"/>
<path fill="none" stroke="#4D5152" stroke-linecap="round" stroke-linejoin="round" stroke-miterlimit="10" d="M16.287,27.728
	c-4.33,2.5-10.354,1.067-12.978-3.478S2.457,13.773,6.787,11.273c8.66-5,23.904-4.523,23.904-4.523S24.947,22.728,16.287,27.728z"/>
</svg>
