<?xml version="1.0" ?><!DOCTYPE svg  PUBLIC '-//W3C//DTD SVG 1.1//EN'  'http://www.w3.org/Graphics/SVG/1.1/DTD/svg11.dtd'><svg enable-background="new 0 0 512 512" height="512px" id="laser_x5F_weapon" version="1.1" viewBox="0 0 512 512" width="512px" xml:space="preserve" xmlns="http://www.w3.org/2000/svg" xmlns:xlink="http://www.w3.org/1999/xlink"><path d="M383.888,255.644c30.399-21.079,50.312-56.216,50.312-96.01c0-64.486-52.276-116.762-116.762-116.762  c-64.486,0-116.762,52.276-116.762,116.762c0,46.233,26.873,86.188,65.85,105.103c-26.806,20.063-44.155,52.069-44.155,88.128  c0,60.756,49.252,110.008,110.008,110.008s110.008-49.252,110.008-110.008C442.387,310.721,418.685,274.119,383.888,255.644z" fill="#598889"/><circle cx="332.379" cy="352.864" fill="#466C6F" r="85.844"/><path d="M186.337,165.872l-75.206-24.696c-5.182-1.646-10.759,1.211-12.473,6.352l-35.906-11.402  c-5.228-1.66-10.863,1.259-12.523,6.486c-1.66,5.227,1.259,10.863,6.486,12.523l39.159,12.27c-2.023,1.327-3.624,3.324-4.408,5.796  c-0.463,1.457-0.597,2.941-0.45,4.376l-61.335-19.479c-5.228-1.66-10.863,1.259-12.523,6.486s1.259,10.863,6.486,12.523  l145.89,46.332c23.804,8.432,35.988-12.852,37.804-18.568S214.337,174.872,186.337,165.872z" fill="#466C6F"/><path d="M105.161,166.108c-3.245-1.031-6.631-0.445-9.287,1.297l0,0c-0.399,0.262-0.776,0.557-1.14,0.87  c-0.114,0.098-0.229,0.192-0.339,0.294c-0.123,0.115-0.238,0.237-0.355,0.357c-0.115,0.118-0.229,0.235-0.339,0.358  c-0.107,0.12-0.209,0.245-0.311,0.369c-0.111,0.138-0.221,0.277-0.326,0.42c-0.09,0.123-0.178,0.247-0.264,0.374  c-0.107,0.16-0.209,0.325-0.309,0.492c-0.072,0.122-0.146,0.242-0.213,0.367c-0.106,0.195-0.203,0.396-0.297,0.6  c-0.05,0.106-0.104,0.21-0.15,0.319c-0.135,0.317-0.26,0.642-0.366,0.976c-0.001,0.004-0.002,0.008-0.003,0.011  c-0.114,0.358-0.208,0.719-0.282,1.08c-0.01,0.048-0.013,0.096-0.022,0.144c-0.061,0.32-0.114,0.64-0.146,0.959  c-0.001,0.015-0.001,0.029-0.002,0.043c-0.069,0.719-0.066,1.435,0.005,2.139c0.428,4.198,3.283,7.967,7.543,9.319l99.829,31.092  c5.179-4.765,8.128-10.53,8.95-13.116c0.419-1.319,1.014-3.636,1.343-6.519L105.161,166.108z" fill="#5AA096"/><circle cx="317.438" cy="159.634" fill="#466C6F" r="96.575"/><circle cx="399.076" cy="62.684" fill="#66B2B2" r="21.166"/><circle cx="247.911" cy="437.69" fill="#66B2B2" r="21.166"/><circle cx="333.581" cy="81.295" fill="#66B2B2" r="9.96"/><circle cx="163.45" cy="276.689" fill="#66B2B2" r="9.047"/><circle cx="307.085" cy="461.438" fill="#66B2B2" r="9.047"/><circle cx="66.581" cy="114.825" fill="#66B2B2" r="9.047"/><ellipse cx="180.834" cy="196.232" fill="#FF7143" rx="28.025" ry="33.45" transform="matrix(0.9659 0.2588 -0.2588 0.9659 56.9505 -40.117)"/><path d="M154,188.165c-0.079,0.271-0.163,0.539-0.236,0.813c-4.781,17.844,3.462,35.557,18.413,39.563  c14.586,3.908,30.162-6.678,35.353-23.768L154,188.165z" fill="#E5603C"/><path d="M418.497,247.55L418.497,247.55c-21.568-5.779-43.445-4.2-62.966,3.149l0,0  c-0.002,0-0.004,0.001-0.005,0.001c-1.138,0.428-2.27,0.868-3.39,1.335c-1.146,0.473-2.285,0.965-3.411,1.483  c-0.014,0.006-0.027,0.012-0.04,0.018c0.001,0,0.002,0,0.003,0.001c0.429,0.146,0.876,0.311,1.331,0.485  c0.093,0.035,0.186,0.07,0.279,0.107c0.448,0.175,0.907,0.361,1.379,0.563c0.086,0.036,0.173,0.075,0.259,0.112  c0.447,0.192,0.902,0.396,1.368,0.609c0.063,0.029,0.126,0.057,0.19,0.087c0.504,0.233,1.021,0.481,1.547,0.739  c0.113,0.056,0.229,0.112,0.343,0.17c0.532,0.264,1.071,0.536,1.623,0.823c0.052,0.026,0.104,0.055,0.156,0.082  c0.524,0.273,1.058,0.559,1.598,0.852c0.106,0.058,0.212,0.114,0.319,0.173c0.567,0.31,1.143,0.631,1.726,0.961  c0.114,0.064,0.229,0.131,0.345,0.196c0.584,0.332,1.174,0.673,1.771,1.023c0.025,0.016,0.05,0.029,0.075,0.045  c0.618,0.363,1.246,0.74,1.878,1.123c0.123,0.074,0.244,0.148,0.367,0.223c0.626,0.381,1.258,0.77,1.896,1.169  c0.082,0.051,0.165,0.104,0.247,0.155c0.613,0.385,1.23,0.776,1.853,1.176c0.075,0.048,0.15,0.095,0.226,0.144  c0.656,0.423,1.318,0.854,1.983,1.291c0.117,0.077,0.234,0.155,0.353,0.233c1.365,0.9,2.745,1.832,4.134,2.789  c0.099,0.068,0.196,0.135,0.294,0.202c0.688,0.476,1.376,0.956,2.066,1.442c0.085,0.061,0.17,0.12,0.255,0.18  c0.7,0.495,1.4,0.994,2.102,1.499c0.01,0.007,0.02,0.014,0.029,0.021c0.712,0.514,1.424,1.031,2.136,1.555  c0.093,0.068,0.185,0.136,0.277,0.203c0.713,0.525,1.425,1.053,2.135,1.586c0.016,0.012,0.032,0.024,0.049,0.037  c0.715,0.537,1.43,1.078,2.141,1.621c0.047,0.037,0.095,0.072,0.142,0.108c0.709,0.542,1.415,1.089,2.117,1.638  c0.068,0.053,0.138,0.107,0.206,0.161c1.422,1.11,2.828,2.231,4.213,3.357c0.057,0.046,0.112,0.092,0.169,0.138  c0.696,0.566,1.388,1.135,2.071,1.703c0.02,0.017,0.039,0.033,0.059,0.049c1.388,1.154,2.748,2.311,4.073,3.463  c0.052,0.045,0.103,0.089,0.153,0.134c1.318,1.147,2.602,2.292,3.842,3.426c0.023,0.021,0.047,0.042,0.069,0.063  c0.617,0.564,1.224,1.127,1.817,1.687c0.032,0.03,0.064,0.061,0.097,0.091c1.187,1.118,2.326,2.223,3.411,3.31  c0.037,0.038,0.075,0.075,0.111,0.112c0.543,0.545,1.072,1.085,1.587,1.619c0.002,0.002,0.003,0.004,0.005,0.006  c0.528,0.55,1.041,1.094,1.538,1.632c0,0.001,0,0.001,0,0.001c-2.628-1.248-5.396-2.288-8.308-3.068  c-25.924-6.945-52.57,8.438-59.517,34.363c-6.946,25.924,8.438,52.57,34.362,59.518c2.437,0.652,4.88,1.107,7.313,1.376  c-1.657,2.383-3.323,4.728-4.987,7.021c-0.021,0.028-0.041,0.057-0.063,0.085c-1.637,2.255-3.271,4.458-4.891,6.6  c-0.049,0.064-0.098,0.128-0.146,0.192c-1.592,2.101-3.169,4.139-4.722,6.104c-0.068,0.086-0.136,0.171-0.204,0.256  c-1.527,1.93-3.031,3.785-4.5,5.557c-0.085,0.104-0.17,0.207-0.255,0.309c-0.724,0.871-1.439,1.723-2.145,2.55  c-0.046,0.054-0.091,0.106-0.138,0.159c-0.658,0.773-1.308,1.523-1.948,2.255c-0.091,0.104-0.184,0.211-0.274,0.315  c-0.659,0.75-1.308,1.477-1.944,2.182c-0.099,0.109-0.196,0.216-0.296,0.324c-0.572,0.632-1.137,1.244-1.689,1.835  c-0.085,0.091-0.171,0.185-0.255,0.273c-0.595,0.633-1.175,1.238-1.743,1.821c-0.119,0.122-0.235,0.24-0.354,0.359  c-0.521,0.531-1.034,1.045-1.532,1.531c-0.054,0.053-0.11,0.109-0.164,0.162c-0.53,0.516-1.042,0.998-1.542,1.461  c-0.117,0.107-0.233,0.214-0.349,0.318c-0.498,0.454-0.985,0.89-1.449,1.285c-0.001,0-0.001,0.001-0.001,0.001  c-0.315,0.269-0.606,0.551-0.874,0.847c-4.018,4.428-2.792,11.661,2.769,14.406c0.016,0.008,0.034,0.015,0.05,0.022  c0.425,0.208,0.876,0.41,1.356,0.604c0.16,0.064,0.34,0.124,0.505,0.188c0.353,0.134,0.701,0.27,1.081,0.397  c0.187,0.063,0.395,0.121,0.587,0.183c0.382,0.121,0.759,0.244,1.164,0.359c0.202,0.057,0.422,0.109,0.63,0.165  c0.42,0.113,0.838,0.228,1.28,0.334c0.204,0.049,0.423,0.094,0.631,0.142c0.469,0.107,0.937,0.215,1.428,0.316  c0.197,0.04,0.407,0.076,0.608,0.115c0.523,0.104,1.047,0.205,1.593,0.301c0.179,0.031,0.366,0.059,0.547,0.089  c0.585,0.099,1.173,0.195,1.781,0.286c0.164,0.024,0.336,0.046,0.502,0.069c0.64,0.092,1.285,0.182,1.949,0.265  c0.139,0.018,0.284,0.033,0.424,0.05c0.702,0.086,1.413,0.169,2.14,0.245c0.108,0.012,0.221,0.021,0.33,0.032  c0.768,0.079,1.543,0.153,2.333,0.222c0.079,0.008,0.161,0.014,0.241,0.02c0.826,0.07,1.662,0.137,2.511,0.195  c0.052,0.004,0.105,0.007,0.158,0.011c0.881,0.061,1.772,0.116,2.675,0.165c0.022,0.002,0.045,0.003,0.067,0.004  c0.934,0.051,1.878,0.096,2.831,0.134c0.001,0.001,0.002,0,0.002,0.001c18.004,0.727,39.289-0.693,53.296-3.666  c7.536-1.601,14.204-5.936,18.711-12.185c8.534-11.834,30.605-41.334,33.503-52.149l3.478-12.977  C506.37,319.288,473.454,262.275,418.497,247.55z M386.733,364.231c-11.293-3.025-17.996-14.635-14.97-25.928  s14.635-17.996,25.929-14.97c11.191,2.999,17.868,14.426,15.044,25.622c-1.321,2.747-2.751,5.551-4.269,8.391  C403.346,363.478,394.958,366.437,386.733,364.231z" fill="#71B7D3"/><path d="M385.734,260.071l-30.203-9.372c-2.314,0.871-4.603,1.806-6.846,2.837  c15.334,5.213,48.493,29.117,64.412,46.375c-2.628-1.248-5.396-2.288-8.308-3.068c-25.924-6.945-52.57,8.438-59.517,34.363  c-6.946,25.924,8.438,52.57,34.362,59.518c2.437,0.652,4.88,1.107,7.313,1.376c-13.319,19.157-27.247,35.847-35.591,42.956  c-5.035,4.289-4.037,12.324,1.895,15.252c7.07,3.49,22.132,5.06,38.366,5.1c28.763-10.932,52.446-34.464,62.218-65.955l0,0  C470.688,335.144,440.042,276.923,385.734,260.071z M386.733,364.231c-11.293-3.025-17.996-14.635-14.97-25.928  s14.635-17.996,25.929-14.97c11.191,2.999,17.868,14.426,15.044,25.622c-1.321,2.747-2.751,5.551-4.269,8.391  C403.346,363.478,394.958,366.437,386.733,364.231z" fill="#5BA9C1"/><ellipse cx="329.724" cy="247.971" fill="#52C9D5" rx="137.909" ry="79.804" transform="matrix(0.9659 0.2588 -0.2588 0.9659 75.4141 -76.889)"/><path d="M445.891,309.645c-12.422-22.948-33.418-41.276-60.156-49.573L200.328,202.54  c-1.619,3.088-2.902,6.335-3.813,9.738c-11.407,42.573,38.985,93.065,112.555,112.778  C365.24,340.107,418.679,332.86,445.891,309.645z" fill="#49BAC0"/><path d="M348.237,312.36c10.362-38.672,62.313-59.945,125.423-55.641c3.541,0.241,6.07-3.29,4.738-6.581  c-7.778-19.216-24.185-38.092-46.786-54.163c-0.529,7.443-4.017,14.777-10.861,20.039l-17.615,13.541  c-2.006,1.542-4.614,2.062-7.058,1.407l-57.846-15.5c-6.648-1.782-8.211-10.504-2.595-14.483l39.05-27.664  c2.189-1.551,4.504-2.868,6.9-3.974c-9.029-3.524-18.485-6.644-28.31-9.276c-83.896-22.479-162.451-1.347-175.459,47.202  c-13.009,48.548,44.456,106.127,128.351,128.608c6.02,1.612,12.012,3,17.953,4.17c11.063,2.177,21.703-5.745,22.383-17  C346.723,319.447,347.294,315.88,348.237,312.36z" fill="#F4F4F4"/><path d="M399.168,265.299c-4.295-2.025-8.775-3.782-13.434-5.228L181.84,196.803  c-1.691,3.331-3.044,6.818-4.021,10.465c-13.009,48.547,44.456,106.127,128.351,128.608c6.02,1.612,12.012,3,17.953,4.17  c11.063,2.177,21.703-5.745,22.383-17c0.217-3.599,0.788-7.166,1.731-10.686C354.021,290.777,372.767,274.622,399.168,265.299z" fill="#E0E0E0"/><path d="M224.691,245.425L224.691,245.425c1.627-5.375,8.971-7.951,16.316-5.726l60.214,18.239  c7.347,2.225,12.025,8.442,10.397,13.816l0,0c-1.628,5.375-8.971,7.951-16.317,5.726l-60.214-18.238  C227.742,257.017,223.063,250.799,224.691,245.425z" fill="#5BA9C1"/><path d="M299.033,262.313l-60.213-18.238c-5.676-1.719-11.338-0.563-14.375,2.526  c-0.683,5.076,3.828,10.576,10.644,12.641l60.214,18.238c5.677,1.72,11.338,0.563,14.376-2.525  C310.36,269.88,305.85,264.379,299.033,262.313z" fill="#71B7D3"/><path d="M218.266,209.897L218.266,209.897c2.225-7.347,10.057-11.537,17.403-9.312l60.214,18.237  c7.347,2.225,11.537,10.056,9.312,17.403l0,0c-2.225,7.347-10.056,11.537-17.402,9.312L227.578,227.3  C220.232,225.075,216.041,217.244,218.266,209.897z" fill="#5BA9C1"/><path d="M293.695,223.198l-60.214-18.237c-5.771-1.748-11.831,0.475-15.247,5.066  c-2.137,7.309,2.041,15.061,9.344,17.272l60.215,18.237c5.771,1.748,11.83-0.475,15.247-5.066  C305.177,233.162,300.999,225.411,293.695,223.198z" fill="#71B7D3"/><polygon fill="#FFD326" points="194.505,302.515 199.697,313.035 211.308,314.722 202.906,322.911 204.89,334.476 194.505,329.016   184.12,334.476 186.103,322.911 177.702,314.722 189.312,313.035 "/><polygon fill="#FFD326" points="470.505,161.514 475.697,172.035 487.309,173.722 478.906,181.912 480.89,193.476 470.505,188.016   460.12,193.476 462.104,181.912 453.702,173.722 465.313,172.035 "/><polygon fill="#FFD326" points="478.505,433.515 483.697,444.035 495.309,445.722 486.906,453.911 488.89,465.476 478.505,460.016   468.12,465.476 470.104,453.911 461.702,445.722 473.313,444.035 "/><path d="M127.296,268.248c-0.571,0-1.151-0.07-1.731-0.218c-46.245-11.766-74.296-58.96-62.53-105.206  c5.699-22.402,19.781-41.244,39.652-53.054c19.871-11.811,43.153-15.177,65.554-9.477c3.747,0.953,6.011,4.764,5.058,8.51  c-0.953,3.747-4.759,6.011-8.51,5.058c-18.777-4.777-38.292-1.956-54.948,7.944c-16.656,9.9-28.46,25.693-33.238,44.472  c-9.862,38.764,13.651,78.324,52.415,88.186c3.747,0.953,6.011,4.763,5.058,8.51C133.27,266.14,130.421,268.248,127.296,268.248z" fill="#FFDB43"/><path d="M150.556,241.976c-0.571,0-1.151-0.07-1.731-0.218c-13.525-3.44-24.9-11.942-32.03-23.939  c-7.131-11.997-9.163-26.052-5.721-39.577c3.44-13.524,11.942-24.9,23.939-32.03c11.997-7.13,26.051-9.162,39.577-5.721  c3.747,0.953,6.011,4.763,5.058,8.51c-0.953,3.746-4.761,6.013-8.51,5.058c-9.9-2.518-20.189-1.031-28.972,4.188  c-8.782,5.22-15.005,13.547-17.524,23.448s-1.031,20.19,4.188,28.972c5.22,8.782,13.547,15.005,23.448,17.524  c3.747,0.953,6.011,4.763,5.058,8.51C156.529,239.867,153.681,241.976,150.556,241.976z" fill="#FFDB43"/></svg>