<?xml version="1.0" ?><svg id="Layer_3" style="enable-background:new 0 0 64 64;" version="1.1" viewBox="0 0 64 64" xml:space="preserve" xmlns="http://www.w3.org/2000/svg" xmlns:xlink="http://www.w3.org/1999/xlink"><g><g><path d="M53.001,16c0.912,1.214,2.363,2,3.999,2c2.761,0,5-2.239,5-5s-2.239-5-5-5    c-0.137,0-0.266,0.03-0.4,0.04C55.837,6.253,54.066,5,52,5c-1.126,0-2.165,0.372-3,1.001" style="fill:#2085AD;"/></g><g><path d="M53.001,16c0.912,1.214,2.363,2,3.999,2c0.864,0,1.665-0.239,2.375-0.625    C59.761,16.665,60,15.864,60,15c0-2.761-2.239-5-5-5c-0.137,0-0.266,0.03-0.4,0.04C53.837,8.253,52.066,7,50,7    c-0.198,0-0.389,0.025-0.581,0.048" style="fill:#29ABE2;"/></g><g><polyline points="48.8,6 53,12 53,34 39,34 39,12 46,2 48.8,6   " style="fill:#666666;"/></g><g><polygon points="45.8,6 44.5,4.143 39,12 39,34 50,34 50,12   " style="fill:#808080;"/></g><g><path d="M39,20v-8l5-7.143l0,0.493C42.352,3.307,39.83,2,37,2c-3.987,0-7.362,2.595-8.545,6.185    C27.988,8.069,27.503,8,27,8c-3.314,0-6,2.686-6,6s2.686,6,6,6c1.75,0,3.32-0.754,4.417-1.949C32.952,19.268,34.889,20,37,20H39" style="fill:#2085AD;"/></g><g><path d="M38,5c-3.987,0-7.362,2.595-8.545,6.185C28.989,11.069,28.503,11,28,11c-3.314,0-6,2.686-6,6    c0,0.116,0.011,0.229,0.017,0.343C23.095,18.945,24.924,20,27,20c1.75,0,3.32-0.754,4.417-1.949C32.952,19.268,34.889,20,37,20h2    v-8l3.886-5.551C41.479,5.535,39.803,5,38,5z" style="fill:#29ABE2;"/></g><g><g><path d="M41,4.857l-0.194,0.277C40.869,5.208,40.939,5.275,41,5.351L41,4.857z" style="fill:#2AB2E6;"/></g></g><g><polyline points="48.8,6 46,2 39,12 53,12 48.8,6   " style="fill:#B3B3B3;"/></g><g><polygon points="44.5,4.143 39,12 50,12 45.8,6   " style="fill:#CCCCCC;"/></g><g><polyline points="57,22.5 61,27 53,27 53,18 57,22.5   " style="fill:#999999;"/></g><g><rect height="4" style="fill:#B3B3B3;" width="14" x="39" y="30"/></g><g><rect height="4" style="fill:#CCCCCC;" width="11" x="39" y="30"/></g><g><polygon points="39,18 31,27 39,27   " style="fill:#999999;"/></g><g><polygon points="31,27 37,27 37,20.25   " style="fill:#B3B3B3;"/></g><g><circle cx="46" cy="23" r="3" style="fill:#B1181D;"/></g><g><ellipse cx="45" cy="23" rx="2" ry="2.816" style="fill:#ED1C24;"/></g><g><rect height="4" style="fill:#B1181D;" width="14" x="39" y="12"/></g><g><rect height="4" style="fill:#ED1C24;" width="11" x="39" y="12"/></g><g><path d="M41,34v3c0,0.552,0.448,1,1,1h8c0.552,0,1-0.448,1-1v-3H41z" style="fill:#B1181D;"/></g><g><path d="M48,37v-3h-7v3c0,0.552,0.448,1,1,1h5C47.552,38,48,37.552,48,37z" style="fill:#ED1C24;"/></g><g><rect height="10" style="fill:#666666;" width="60" x="2" y="52"/></g><g><rect height="10" style="fill:#808080;" width="56" x="2" y="52"/></g><g><rect height="4" style="fill:#2085AD;" width="33" x="27" y="48"/></g><g><rect height="4" style="fill:#2AB2E6;" width="29" x="27" y="48"/></g><g><rect height="28" style="fill:#6E161A;" width="10" x="17" y="24"/></g><g><rect height="28" style="fill:#911D22;" width="6" x="17" y="24"/></g><g><rect height="10" style="fill:#006E35;" width="15" x="2" y="2"/></g><g><rect height="10" style="fill:#009245;" width="12" x="2" y="2"/></g><g><rect height="10" style="fill:#B96E16;" width="15" x="2" y="12"/></g><g><rect height="10" style="fill:#F7931E;" width="12" x="2" y="12"/></g><g><rect height="10" style="fill:#A67C52;" width="15" x="2" y="22"/></g><g><rect height="10" style="fill:#C69C6D;" width="12" x="2" y="22"/></g><g><rect height="10" style="fill:#BF0000;" width="15" x="2" y="32"/></g><g><rect height="10" style="fill:#FF0000;" width="12" x="2" y="32"/></g><g><rect height="10" style="fill:#005A90;" width="15" x="2" y="42"/></g><g><rect height="10" style="fill:#0078C0;" width="12" x="2" y="42"/></g><g><path d="M18,52h-2V3H3v49H1V2c0-0.553,0.448-1,1-1h15c0.552,0,1,0.447,1,1V52z"/></g><g><rect height="2" width="15" x="2" y="41"/></g><g><rect height="2" width="15" x="2" y="31"/></g><g><rect height="2" width="15" x="2" y="11"/></g><g><rect height="2.001" transform="matrix(0.9284 -0.3715 0.3715 0.9284 -1.5491 3.9584)" width="16.155" x="1.422" y="5"/></g><g><rect height="2.001" transform="matrix(0.9284 -0.3715 0.3715 0.9284 -5.2638 4.6739)" width="16.155" x="1.422" y="15"/></g><g><rect height="2.001" transform="matrix(0.9284 -0.3715 0.3715 0.9284 -8.9786 5.3895)" width="16.155" x="1.422" y="25"/></g><g><rect height="2.001" transform="matrix(0.9284 -0.3715 0.3715 0.9284 -12.6933 6.1051)" width="16.155" x="1.422" y="35"/></g><g><rect height="2.001" transform="matrix(0.9284 -0.3715 0.3715 0.9284 -16.4081 6.8206)" width="16.155" x="1.422" y="45"/></g><g><rect height="2" width="15" x="2" y="21"/></g><g><path d="M62,63H2c-0.552,0-1-0.447-1-1V52c0-0.553,0.448-1,1-1h60c0.552,0,1,0.447,1,1v10C63,62.553,62.552,63,62,63z M3,61h58v-8    H3V61z"/></g><g><path d="M61,52h-2v-3H27v-2h33c0.552,0,1,0.447,1,1V52z"/></g><g><path d="M50,39h-8c-1.103,0-2-0.897-2-2v-3h2v3h8v-3h2v3C52,38.103,51.103,39,50,39z"/></g><g><path d="M61,28h-8v-2h5.773l-6.521-7.336l1.495-1.328l8,9c0.261,0.294,0.326,0.715,0.165,1.073C61.751,27.769,61.394,28,61,28z"/></g><g><path d="M39,28h-8c-0.394,0-0.751-0.231-0.912-0.591c-0.162-0.358-0.097-0.779,0.165-1.073l8-9l1.495,1.328L33.227,26H39V28z"/></g><g><rect height="2" width="14" x="39" y="11"/></g><g><rect height="2" width="14" x="39" y="15"/></g><g><rect height="2" width="14" x="39" y="29"/></g><g><path d="M46,27c-2.206,0-4-1.794-4-4s1.794-4,4-4s4,1.794,4,4S48.206,27,46,27z M46,21c-1.103,0-2,0.897-2,2s0.897,2,2,2    s2-0.897,2-2S47.103,21,46,21z"/></g><g><rect height="4" width="2" x="45" y="41"/></g><g><rect height="2" transform="matrix(0.7071 -0.7071 0.7071 0.7071 -17.2255 41.5858)" width="4" x="39.586" y="40.586"/></g><g><rect height="4" transform="matrix(0.707 -0.7072 0.7072 0.707 -14.5889 47.9554)" width="2" x="49.586" y="39.586"/></g><g><path d="M37,21c-1.979,0-3.862-0.568-5.496-1.651C30.249,20.407,28.65,21,27,21c-3.86,0-7-3.141-7-7    c0-4.129,3.622-7.473,7.816-6.949C29.382,3.398,32.97,1,37,1c3.035,0,5.87,1.356,7.779,3.723l-1.557,1.256    C41.695,4.086,39.427,3,37,3c-3.46,0-6.512,2.21-7.595,5.498c-0.164,0.498-0.687,0.785-1.193,0.657C24.929,8.334,22,10.85,22,14    c0,2.757,2.243,5,5,5c1.412,0,2.719-0.577,3.68-1.625c0.354-0.386,0.947-0.435,1.358-0.107C33.468,18.4,35.184,19,37,19V21z"/></g><g><path d="M57,19c-1.904,0-3.653-0.875-4.798-2.399l1.6-1.201C54.565,16.417,55.731,17,57,17c2.206,0,4-1.794,4-4s-1.794-4-4-4    c-0.038,0-0.074,0.008-0.11,0.013c-0.07,0.01-0.14,0.019-0.21,0.024c-0.432,0.036-0.831-0.21-1-0.604C55.05,6.955,53.605,6,52,6    c-0.874,0-1.704,0.276-2.398,0.8l-1.203-1.598C49.443,4.416,50.688,4,52,4c2.166,0,4.136,1.158,5.198,3.003    C60.415,7.108,63,9.758,63,13C63,16.309,60.309,19,57,19z"/></g><g><path d="M28,52h-2V25h-9v-2h10c0.552,0,1,0.447,1,1V52z"/></g><g><path d="M53,35H39c-0.552,0-1-0.447-1-1V12c0-0.205,0.063-0.405,0.181-0.573l7-10C45.368,1.159,45.674,1,46,1l0,0    c0.326,0,0.632,0.159,0.819,0.427l7,10C53.937,11.595,54,11.795,54,12v22C54,34.553,53.552,35,53,35z M40,33h12V12.315    l-4.02-5.742l0,0L46,3.744l-6,8.571V33z"/></g></g></svg>