<?xml version="1.0" ?><svg data-name="Layer 3" id="Layer_3" viewBox="0 0 48 48" xmlns="http://www.w3.org/2000/svg"><defs><style>.cls-1{fill:#ffa866;}.cls-2{fill:#fcf260;}.cls-3{fill:none;stroke:#ffa866;stroke-linecap:round;stroke-linejoin:round;}</style></defs><path class="cls-1" d="M23.95894,43.78571c-.50964,0-1.01246,1.40775-1.51322,1.37226-.50773-.036-.96208-.40952-1.45943-.48074-.50326-.07206-1.38421,1.72313-1.87554,1.61629-.49622-.1079-.79546-1.27949-1.27817-1.42152-.48667-.14319-1.36452.658-1.83608.48153-.47468-.17768-.47617-1.65137-.93414-1.8614-.46034-.21112-.09627-1.95237-.5383-2.19475-.44381-.24336-1.99311,1.42919-2.417,1.15577-.42513-.27421.22739-2.06668-.17626-2.36967-.40438-.30354-.89029-.38967-1.27164-.72063-.38168-.33124-.36531-.97033-.72246-1.32756s-1.6.18275-1.93112-.199c-.33083-.38139-.66792-.74961-.97133-1.154-.30287-.40367-.73158-.721-1.00566-1.14616-.27332-.42394.94678-1.67551.70353-2.11935-.24226-.442-2.41526.12463-2.62626-.33571-.20983-.45778.55614-1.32879.37864-1.80326-.17635-.47138.36435-1.123.22129-1.60946-.14193-.48263-1.262-.67-1.36981-1.16613-.10666-.4908-.29132-.96483-.36329-1.46752-.07118-.49726-.09442-.99986-.13038-1.50749-.03547-.50058-.9929-1.00144-.9929-1.5109,0-.50963,2.40409-.90814,2.43959-1.4089.036-.50774-1.72055-1.16067-1.64934-1.658.07207-.50326.46945-.95633.57629-1.44766.1079-.49622,1.03794-.74872,1.18-1.23144.1432-.48666-1.49157-1.573-1.31507-2.04457.17768-.47468.29453-1.05973.50455-1.5177.21112-.46034,2.73813.254,2.98051-.188.24335-.44381-1.97745-2.35757-1.704-2.78148.27421-.42513,1.11457-.557,1.41757-.96068.30354-.40437,1.32023-.27168,1.65119-.653.33124-.38168.18685-1.23924.54408-1.59639s1.27431-.14384,1.656-.475c.38139-.33083,1.58894.44929,1.99334.14588.40367-.30287.41805-1.0201.84318-1.29419.42394-.27331.29932-1.41981.74316-1.66306.442-.24226,1.11184-.02046,1.57218-.23146.45778-.20983,1.16946.32109,1.64393.14358.47138-.17635.95674-.03434,1.4432-.1774.48263-.14194.61767-1.42733,1.1138-1.53515.4908-.10666,1.0105.05272,1.51319-.01924.49726-.07118.85586-1.7264,1.36349-1.76236.50058-.03547,1.08927,1.12934,1.59873,1.12934.50963,0,1.11522-1.40028,1.616-1.36479.50773.036,1.0133.78419,1.51065.85541.50326.07206,1.13511-.21036,1.62644-.10353.49623.10791.79464,1.16817,1.27735,1.3102.48667.14319.60473,1.30207,1.07629,1.47858.47468.17767,1.25777-.47316,1.71574-.26313.46034.21112.1503,1.82739.59234,2.06977.44381.24335,2.01342-1.46619,2.43733-1.19276.42513.27421,1.02842.39371,1.43207.69671.40438.30354.95395.5423,1.33531.87326.38168.33124.85386.68317,1.211,1.0404s1.11542.47686,1.44655.8586c.33083.38138-.88126,2.067-.57785,2.4714.30286.40367.45008.87869.72417,1.30382.27331.424.995.56231,1.23828,1.00614.24226.442,1.85687.26,2.06787.72035.20983.45778-2.2106,2.02158-2.0331,2.49606.17635.47137,2.73247.15,2.87553.63646.14194.48263-1.76226,1.50524-1.65444,2.00137.10665.4908,1.10937.7954,1.18133,1.29809.07118.49726-1.57062,1.126-1.53466,1.63359.03547.50059,3.3244.89146,3.3244,1.40091,0,.50964.01173,1.13459-.02376,1.63535-.036.50773-.8108,1.02924-.882,1.52659-.07206.50325-1.54207.77236-1.64891,1.26369-.1079.49622.50793,1.17216.3659,1.65487-.14319.48667-.95519.7482-1.13169,1.21976-.17768.47468-1.48639.4027-1.69642.86067-.21111.46034-.25491.88311-.49729,1.32515-.24335.44381.20125,1.2101-.07217,1.634-.27422.42513-1.25871.25925-1.56171.6629-.30354.40438-.26343.96156-.59439,1.34291-.33123.38168.20713,1.51651-.1501,1.87366s-.84732.5616-1.22905.89273c-.38139.33083-.6777.75422-1.0821,1.05763-.40366.30287-.92111.42534-1.34624.69942-.424.27332-.66114.85454-1.105,1.09779-.442.24226-.4384,1.48441-.89874,1.69542-.45778.20983-1.92582-2.01927-2.40029-1.84176-.47138.17635-.848.33316-1.33441.47622-.48263.14193-.76788.74941-1.264.85723-.49079.10666-.97594-.14316-1.47864-.0712-.49725.07118-.90268.31954-1.41031.3555C24.90562,44.27034,24.46839,43.78571,23.95894,43.78571Z"/><circle class="cls-2" cx="24" cy="24" r="17"/><path class="cls-3" d="M13.12,10.9304a38.10206,38.10206,0,0,1,12.5936-.884"/><path class="cls-3" d="M21.4976,12.9296a28.291,28.291,0,0,1,10.6896-.408,21.41745,21.41745,0,0,0,4.8008.5032"/><path class="cls-3" d="M11.56215,19.857c5.075-1.16021,10.31753-2.09655,15.467-1.33244,2.32585.34513,4.68153,1.03484,6.98764.576"/><path class="cls-3" d="M22.09692,25.78864a34.8,34.8,0,0,0,13.42714.64482"/><path class="cls-3" d="M12.87948,31.43044a10.83373,10.83373,0,0,0,5.41213,2.35284,15.53234,15.53234,0,0,0,5.93-.35951c1.60094-.39084,3.24991-.98538,4.85343-.60529a2.5112,2.5112,0,0,1,1.42354.82367,1.41952,1.41952,0,0,1,.16323,1.56693,2.16779,2.16779,0,0,1-1.458.80609c-3.46727.78769-4.20136,2.45124-6.02952,1.87625-.76347-.24014-1.52178-.80906-1.45713-1.20214.05563-.3383.70383-.44357,1.63928-.72856a16.909,16.909,0,0,0,2.98714-1.23858"/></svg>