<?xml version="1.0" ?><!DOCTYPE svg  PUBLIC '-//W3C//DTD SVG 1.1//EN'  'http://www.w3.org/Graphics/SVG/1.1/DTD/svg11.dtd'><svg enable-background="new 0 0 512 512" height="512px" id="Space_x5F_Exploration" version="1.1" viewBox="0 0 512 512" width="512px" xml:space="preserve" xmlns="http://www.w3.org/2000/svg" xmlns:xlink="http://www.w3.org/1999/xlink"><path d="M135.48,342.959c-4.443,0-8.059,3.615-8.059,8.059s3.615,8.059,8.059,8.059s8.059-3.615,8.059-8.059  S139.924,342.959,135.48,342.959z" fill="#B8D2FF"/><path d="M222.425,183.132c-12.212-12.213-17.396-29.597-13.87-46.503l0.668-3.205l3.205-0.669  c16.908-3.526,34.291,1.659,46.503,13.871l10.247,10.246c2.149-3.023,4.21-6.114,6.149-9.289l-4.089-2.596  c5.634-8.871,10.313-18.242,14.044-27.96c-7.506-0.036-13.602-6.15-13.602-13.664c0-7.535,6.131-13.666,13.668-13.666  c2.672,0,5.16,0.782,7.27,2.114c2.087-10.314,3.172-20.868,3.172-31.531c0-5.979-0.352-11.972-1.015-17.88h-52.911  c-0.029,0.032-0.062,0.061-0.091,0.094c-1.531,1.743-2.294,3.981-2.143,6.3c0.15,2.32,1.197,4.443,2.946,5.977  c1.747,1.533,3.984,2.29,6.308,2.141c2.32-0.152,4.442-1.199,5.976-2.948l7.519,6.594c-3.294,3.756-7.854,6.005-12.839,6.333  c-0.419,0.027-0.837,0.041-1.253,0.041c-4.535,0-8.863-1.624-12.304-4.642c-3.759-3.296-6.007-7.858-6.332-12.846  c-0.157-2.424,0.157-4.804,0.892-7.043H89.49v70.044c1.343-0.647,2.768-1.146,4.269-1.444c4.64-0.92,9.36,0.023,13.291,2.654  c3.932,2.631,6.603,6.635,7.522,11.275c0.919,4.64-0.023,9.359-2.654,13.291c-2.631,3.931-6.635,6.602-11.275,7.521l-1.943-9.81  c2.02-0.4,3.763-1.563,4.908-3.274s1.556-3.766,1.155-5.785s-1.563-3.763-3.274-4.908c-1.712-1.146-3.767-1.555-5.786-1.155  c-2.02,0.4-3.763,1.563-4.907,3.274c-1.146,1.711-1.556,3.766-1.155,5.785l-0.149,0.029v81.235  c15.479,4.921,31.615,7.416,48.02,7.416c29.241,0,57.805-8.032,82.602-23.229l3.022,4.932c3.348-2.089,6.602-4.311,9.778-6.634  L222.425,183.132z M123.967,81.942c-7.536,0-13.667-6.131-13.667-13.666c0-7.536,6.131-13.667,13.667-13.667  s13.667,6.131,13.667,13.667C137.634,75.812,131.503,81.942,123.967,81.942z M153.448,193.841c-8.353,0-15.148-6.796-15.148-15.148  s6.796-15.148,15.148-15.148s15.148,6.796,15.148,15.148S161.801,193.841,153.448,193.841z M196.159,100.767  c-3.662-2.159-8.396-0.935-10.555,2.728c-2.157,3.662-0.934,8.397,2.729,10.556l-5.076,8.615  c-8.413-4.957-11.225-15.834-6.269-24.247c4.958-8.412,15.836-11.224,24.247-6.268c8.412,4.956,11.225,15.833,6.269,24.246  l-8.616-5.076C201.045,107.658,199.821,102.924,196.159,100.767z" fill="#B8D2FF"/><path d="M310.611,417.92c0,0,22.27,15,12.313,37c0,0-24.29,0.333-27.624,20.666h132.334V350.107  c0,0-20-9.188-29,3.146s-5,24.667-5,24.667s-9,6.329-5,14.164c0,0-11-1.164-14.667,6.169s-2.012,13.796-2.012,13.796  s-21.988,15.582-44.321-11.44c0,0-8.045,5.645-17.022-5.022l-6.978,6.758C303.634,402.344,316.255,412.253,310.611,417.92z" fill="#B8D2FF"/><path d="M314.313,372.475l-17.438-6.462l-50.057-50.057l-22.363,22.364l50.06,50.059l6.438,17.462l6.208,6.208  l16.767-16.768l16.597-16.596L314.313,372.475z M237.398,343.964l-5.098-5.099l5.098-5.098l5.099,5.098L237.398,343.964z   M247.342,334.021l-5.099-5.099l5.099-5.099l5.099,5.099L247.342,334.021z M256.106,360.129l12.646-12.647l7.072,7.071  l-12.647,12.646L256.106,360.129z M271.825,376.145l-7.072-7.071l12.647-12.647l7.071,7.072L271.825,376.145z" fill="#B8D2FF"/><polygon fill="#B8D2FF" points="325.47,353.709 318.399,346.639 327.236,337.801 288.044,337.256 277.356,332.351 302.401,357.396   319.839,363.857 323.846,367.863 343.866,347.844 337.601,341.578 "/><path d="M343.112,366.066c1.168,1.17,3.072,1.169,4.242,0l1.684-1.683c1.169-1.17,1.17-3.073,0-4.243l-1.664-1.663  l-5.926,5.926L343.112,366.066z" fill="#B8D2FF"/><path d="M201.976,293.477c-1.16,9.268,0.877,18.539,5.671,26.392l20.721-20.722  C220.516,294.354,211.244,292.318,201.976,293.477z" fill="#B8D2FF"/><polygon fill="#B8D2FF" points="265.893,393.898 241.59,369.596 246.029,379.27 246.566,417.887 253.848,410.605 260.919,417.677   250.061,428.535 256.617,435.092 276.34,415.369 272.33,411.359 "/><path d="M272.88,432.973l-5.926,5.926l1.662,1.663c1.17,1.171,3.074,1.169,4.244,0l1.683-1.684  c0.566-0.567,0.878-1.319,0.878-2.121s-0.312-1.554-0.878-2.121L272.88,432.973z" fill="#B8D2FF"/><polygon fill="#B8D2FF" points="413.005,211.055 413.679,259.588 422.511,268.42 422.511,215.321 408.563,201.375 "/><path d="M391.433,170.102l31.078,31.077v-44.728l-8.715-8.714L391.433,170.102z M404.376,175.745l-5.098-5.099  l5.098-5.099l5.099,5.099L404.376,175.745z M419.417,160.704l-5.098,5.098l-5.099-5.098l5.099-5.099L419.417,160.704z" fill="#B8D2FF"/><path d="M368.954,125.261c-0.209,1.679-0.314,3.367-0.314,5.05c0,7.524,2.131,14.935,6,21.322l20.699-20.699  C387.445,126.114,378.187,124.102,368.954,125.261z" fill="#B8D2FF"/><path d="M339.36,238.321l-5.476,5.476l3.099,3.098c0.535,0.535,1.408,0.535,1.945,0l3.529-3.529  c0.536-0.537,0.536-1.41,0-1.947L339.36,238.321z" fill="#B8D2FF"/><polygon fill="#B8D2FF" points="335.653,212.371 339.661,216.378 359.681,196.358 353.124,189.801 340.604,202.321 333.532,195.25   342.476,186.307 303.858,185.771 293.171,180.865 318.216,205.91 "/><path d="M358.927,214.582c1.17,1.169,3.072,1.168,4.243-0.001l1.683-1.684c1.17-1.169,1.17-3.072,0-4.242  l-1.663-1.663l-5.927,5.926L358.927,214.582z" fill="#B8D2FF"/><rect fill="#B8D2FF" height="31.626" transform="matrix(0.707 0.7072 -0.7072 0.707 189.0795 -122.7122)" width="4.932" x="240.171" y="151.025"/><polygon fill="#B8D2FF" points="281.708,242.413 257.404,218.11 261.844,227.784 262.381,266.4 269.663,259.119 276.733,266.191   265.875,277.049 272.433,283.605 288.694,267.344 288.694,267.344 292.155,263.884 288.146,259.874 "/><path d="M319.424,258.258l-5.476,5.475l3.098,3.098c0.537,0.537,1.41,0.537,1.945,0l3.53-3.529  c0.536-0.537,0.536-1.409,0-1.945L319.424,258.258z" fill="#B8D2FF"/><path d="M288.694,281.486l-5.926,5.926l1.663,1.664c1.169,1.168,3.071,1.17,4.243,0l1.683-1.684  c1.17-1.17,1.17-3.072,0-4.242L288.694,281.486z" fill="#B8D2FF"/><path d="M295.659,32.4H79.49v95.874c0,0.039,0,0.077,0,0.116v84.986V479.6h353.021V272.092v-2.072v-44.698v-73.013  V32.4H295.659z M422.511,265.789l-5.474-5.474l5.474-5.473V265.789z M422.511,240.7l-8.97,8.97l-0.536-38.615l-4.441-9.68  l13.947,13.946V240.7z M422.511,201.179l-31.078-31.077l22.363-22.364l8.715,8.714V201.179z M403.237,137.179l3.488,3.487  l-22.364,22.364l-3.487-3.488L403.237,137.179z M374.64,151.633c-3.869-6.388-6-13.798-6-21.322c0-1.683,0.105-3.371,0.314-5.05  c9.232-1.159,18.491,0.854,26.385,5.673L374.64,151.633z M422.511,142.309l-12.415-12.414c-1.19-1.19-2.489-2.363-3.869-3.492  c-11.979-9.749-27.521-13.531-42.638-10.377l-3.205,0.669l-0.668,3.206c-0.714,3.426-1.076,6.928-1.076,10.41  c0,13.632,5.308,26.447,14.945,36.085l14.648,14.648l14.803,32.262l0.314,22.683c-6.463-1.494-13.529,0.251-18.555,5.276  c-3.396,3.396-5.303,7.724-5.723,12.167l-0.18-0.18c-3.391,3.391-7.893,5.258-12.68,5.258c-4.786,0-9.289-1.867-12.68-5.258  l-7.07,7.071c5.278,5.279,12.293,8.187,19.75,8.187c5.348,0,10.463-1.502,14.878-4.295c0.93,1.859,2.155,3.607,3.704,5.157  l7.07-7.071c-3.85-3.85-3.85-10.115,0-13.965c3.145-3.145,7.896-3.718,11.631-1.728l0.202,14.512l18.812,18.812v63.586  c-7.052-2.793-15.126-2.433-22.104,1.383c-6.13,3.343-10.591,8.872-12.563,15.568c-1.535,5.215-1.409,10.649,0.296,15.691  c-0.795,0.674-1.529,1.428-2.18,2.273c-2.262,2.943-3.293,6.554-2.967,10.229c-4.23,0.576-8.314,2.465-11.559,5.709  c-4.099,4.1-6.049,9.531-5.891,14.914c-3.239,2.121-7.02,3.267-10.977,3.267c-5.369,0-10.422-2.095-14.225-5.898l-7.072,7.071  c5.693,5.692,13.256,8.827,21.297,8.827c4.914,0,9.648-1.177,13.889-3.388c0.824,1.361,1.803,2.656,2.979,3.832l7.071-7.071  c-3.993-3.993-3.993-10.489,0-14.481c2.679-2.681,6.485-3.553,9.907-2.635c0.082,0.065,0.155,0.139,0.238,0.203l0.089-0.115  c1.556,0.473,3.021,1.318,4.248,2.547l7.07-7.072c-1.836-1.836-3.946-3.226-6.192-4.207c-0.477-0.635-0.801-1.373-0.906-2.181  c-0.162-1.238,0.168-2.465,0.929-3.455c0.761-0.989,1.861-1.624,3.099-1.786c1.241-0.162,2.465,0.168,3.455,0.929l6.095-7.928  c-2.616-2.011-5.76-3.05-9.005-3.029c-0.97-3.037-1.017-6.293-0.096-9.421c1.218-4.135,3.973-7.549,7.762-9.615  c5.588-3.055,12.307-2.521,17.313,1.199V469.6H301.942c0.783-1.289,1.717-2.496,2.805-3.584c3.591-3.591,8.365-5.568,13.445-5.568  s9.855,1.978,13.446,5.568l7.071-7.07c-2.938-2.939-6.399-5.161-10.17-6.598c1.402-3.207,2.146-6.695,2.146-10.299  c0-6.871-2.679-13.334-7.543-18.197l-7.07,7.071c5.293,5.294,6.008,13.446,2.166,19.525c-0.016,0-0.031-0.001-0.047-0.001  c-7.75,0-15.037,3.018-20.516,8.498c-3.045,3.043-5.342,6.673-6.771,10.654H89.49V221.598c15.53,4.616,31.651,6.952,48.02,6.952  c31.087,0,61.457-8.542,87.827-24.703l-2.203-3.595l-3.022-4.932c-24.797,15.197-53.36,23.229-82.602,23.229  c-16.404,0-32.54-2.495-48.02-7.416v-81.235l0.149-0.029c-0.4-2.02,0.01-4.074,1.155-5.785c1.145-1.711,2.888-2.874,4.907-3.274  c2.02-0.399,4.074,0.01,5.786,1.155c1.711,1.146,2.874,2.889,3.274,4.908s-0.01,4.074-1.155,5.785s-2.889,2.874-4.908,3.274  l1.943,9.81c4.641-0.92,8.645-3.591,11.275-7.521c2.631-3.932,3.573-8.651,2.654-13.291c-0.92-4.641-3.591-8.645-7.522-11.275  c-3.931-2.631-8.651-3.574-13.291-2.654c-1.501,0.298-2.926,0.797-4.269,1.444V42.4h141.053c-0.734,2.239-1.049,4.619-0.892,7.043  c0.325,4.987,2.573,9.55,6.332,12.846c3.44,3.018,7.769,4.642,12.304,4.642c0.416,0,0.834-0.014,1.253-0.041  c4.985-0.328,9.545-2.577,12.839-6.333l-7.519-6.594c-1.533,1.749-3.655,2.796-5.976,2.948c-2.323,0.149-4.561-0.607-6.308-2.141  c-1.749-1.533-2.796-3.656-2.946-5.977c-0.151-2.318,0.611-4.557,2.143-6.3c0.029-0.033,0.062-0.062,0.091-0.094h52.911  c0.663,5.908,1.015,11.901,1.015,17.88c0,10.663-1.085,21.217-3.172,31.531c-2.109-1.332-4.598-2.114-7.27-2.114  c-7.537,0-13.668,6.131-13.668,13.666c0,7.514,6.096,13.628,13.602,13.664c-3.73,9.718-8.41,19.089-14.044,27.96l4.089,2.596  l4.353,2.765c17.082-26.899,26.11-58.044,26.11-90.067c0-5.974-0.317-11.965-0.941-17.88h117.662V142.309z M289.015,103.363  c0,2.022-1.645,3.667-3.666,3.667c-2.022,0-3.668-1.645-3.668-3.667c0-2.021,1.646-3.666,3.668-3.666  C287.37,99.697,289.015,101.342,289.015,103.363z" fill="#1F4499"/><path d="M207.504,116.396c4.956-8.413,2.144-19.29-6.269-24.246c-8.411-4.956-19.289-2.145-24.247,6.268  c-4.956,8.413-2.145,19.29,6.269,24.247l5.076-8.615c-3.662-2.158-4.886-6.894-2.729-10.556c2.158-3.662,6.893-4.887,10.555-2.728  c3.662,2.157,4.886,6.892,2.729,10.554L207.504,116.396z" fill="#1F4499"/><path d="M123.967,54.609c-7.536,0-13.667,6.131-13.667,13.667c0,7.535,6.131,13.666,13.667,13.666  s13.667-6.131,13.667-13.666C137.634,60.74,131.503,54.609,123.967,54.609z M123.967,71.942c-2.021,0-3.667-1.645-3.667-3.666  c0-2.022,1.646-3.667,3.667-3.667s3.667,1.645,3.667,3.667C127.634,70.298,125.988,71.942,123.967,71.942z" fill="#1F4499"/><path d="M153.448,163.544c-8.353,0-15.148,6.796-15.148,15.148s6.796,15.148,15.148,15.148  s15.148-6.796,15.148-15.148S161.801,163.544,153.448,163.544z M153.448,183.841c-2.839,0-5.148-2.31-5.148-5.148  s2.31-5.148,5.148-5.148s5.148,2.31,5.148,5.148S156.287,183.841,153.448,183.841z" fill="#1F4499"/><path d="M135.48,332.959c-9.958,0-18.059,8.101-18.059,18.059c0,9.957,8.101,18.059,18.059,18.059  s18.059-8.102,18.059-18.059C153.539,341.06,145.438,332.959,135.48,332.959z M135.48,359.076c-4.443,0-8.059-3.615-8.059-8.059  s3.615-8.059,8.059-8.059s8.059,3.615,8.059,8.059S139.924,359.076,135.48,359.076z" fill="#1F4499"/><rect fill="#1F4499" height="9.047" width="9.047" x="187.411" y="440.429"/><rect fill="#1F4499" height="9.047" width="9.047" x="170.06" y="400.608"/><rect fill="#1F4499" height="9.047" width="9.047" x="149.467" y="420.697"/><rect fill="#1F4499" height="9.047" width="9.047" x="107.823" y="283.641"/><rect fill="#1F4499" height="9.047" width="9.047" x="144.016" y="255.625"/><rect fill="#1F4499" height="9.047" width="9.047" x="325.29" y="113.32"/><rect fill="#1F4499" height="9.047" width="9.047" x="359.136" y="88.01"/><rect fill="#1F4499" height="9.047" width="9.047" x="326.923" y="68.275"/><rect fill="#1F4499" height="7.211" transform="matrix(-0.707 -0.7072 0.7072 -0.707 165.6124 746.3386)" width="7.21" x="233.794" y="335.26"/><rect fill="#1F4499" height="7.211" transform="matrix(-0.7071 -0.7071 0.7071 -0.7071 189.6553 736.4035)" width="7.211" x="243.737" y="325.318"/><path d="M321.924,327.726c-2.265-3.791-1.776-8.78,1.485-12.042c3.85-3.851,10.115-3.851,13.965,0l7.07-7.071  c-1.397-1.398-2.957-2.534-4.615-3.429c5.679-10.574,4.066-24.063-4.848-32.977l-7.071,7.07c6.424,6.425,6.928,16.543,1.546,23.567  c-4.773,0.224-9.481,2.13-13.119,5.768c-5.132,5.132-6.844,12.392-5.178,18.964l-20.865-0.291l-33.273-15.27l-13.904-13.904  c-12.212-12.213-29.597-17.4-46.503-13.871l-3.205,0.668l-0.668,3.205c-3.527,16.906,1.658,34.291,13.87,46.504l14.645,14.645  l14.805,32.259l0.665,47.821l19.893,19.893l3.265-3.266l1.664,1.664c2.534,2.534,5.863,3.801,9.191,3.801  c3.33,0,6.659-1.268,9.193-3.801l1.684-1.684c2.455-2.456,3.807-5.721,3.807-9.192c0-3.473-1.352-6.737-3.807-9.192l-1.664-1.664  l3.461-3.46l3.75,3.751l3.901-3.902l3.098,3.098c2.218,2.219,5.131,3.327,8.044,3.327s5.826-1.108,8.044-3.327l3.53-3.529  c4.436-4.436,4.436-11.652-0.001-16.088l-3.097-3.098l0.318-0.318l3.098,3.098c2.218,2.217,5.131,3.326,8.044,3.326  s5.826-1.109,8.044-3.326l3.529-3.53c2.148-2.148,3.332-5.005,3.332-8.044s-1.184-5.896-3.332-8.044l-3.098-3.098l4.051-4.05  l-3.75-3.75l3.461-3.461l1.663,1.663c2.534,2.534,5.863,3.801,9.192,3.801c3.328,0,6.658-1.267,9.192-3.801l1.683-1.683v-0.001  c5.068-5.069,5.068-13.316,0-18.385l-1.663-1.663l3.563-3.563l-19.894-19.893L321.924,327.726z M201.976,293.477  c9.269-1.158,18.54,0.878,26.392,5.67l-20.721,20.722C202.853,312.016,200.815,302.744,201.976,293.477z M217.385,331.248  l-3.488-3.487l22.363-22.363l3.488,3.487L217.385,331.248z M274.543,438.878l-1.683,1.684c-1.17,1.169-3.074,1.171-4.244,0  l-1.662-1.663l5.926-5.926l1.663,1.663c0.566,0.567,0.878,1.319,0.878,2.121S275.109,438.311,274.543,438.878z M256.617,435.092  l-6.557-6.557l10.858-10.858l-7.071-7.071l-7.281,7.281l-0.537-38.617l-4.439-9.674l24.303,24.303l6.438,17.461l4.01,4.01  L256.617,435.092z M306.706,414.786l-3.529,3.53c-0.333,0.332-0.713,0.402-0.973,0.402s-0.64-0.07-0.973-0.402l-3.098-3.098  l5.475-5.477l3.098,3.098c0.334,0.334,0.404,0.713,0.404,0.974C307.11,414.073,307.04,414.453,306.706,414.786z M303.928,395.281  l-16.767,16.768l-6.208-6.208l-6.438-17.462l-50.06-50.059l22.363-22.364l50.057,50.057l17.438,6.462l6.211,6.211L303.928,395.281z   M326.644,394.85l-3.53,3.529c-0.333,0.334-0.713,0.403-0.973,0.403s-0.64-0.069-0.973-0.403l-3.098-3.098l5.476-5.475l3.098,3.098  c0.333,0.333,0.402,0.713,0.402,0.973S326.977,394.517,326.644,394.85z M349.038,360.141c1.17,1.17,1.169,3.073,0,4.243  l-1.684,1.683c-1.17,1.169-3.074,1.17-4.242,0l-1.664-1.663l5.926-5.926L349.038,360.141z M323.846,367.863l-4.007-4.006  l-17.438-6.462l-25.045-25.045l10.688,4.905l39.192,0.545l-8.837,8.838l7.07,7.07l12.131-12.131l6.266,6.266L323.846,367.863z" fill="#1F4499"/><rect fill="#1F4499" height="10" transform="matrix(0.7071 -0.7071 0.7071 0.7071 -174.7808 292.7455)" width="17.886" x="257.023" y="352.341"/><rect fill="#1F4499" height="17.885" transform="matrix(-0.7072 -0.7071 0.7071 -0.7072 209.8208 819.4734)" width="10.001" x="269.612" y="357.343"/><path d="M360.474,335.498c5.279-5.279,8.186-12.294,8.186-19.751c0-7.458-2.906-14.472-8.186-19.751l-7.072,7.071  c3.391,3.39,5.258,7.894,5.258,12.68s-1.867,9.289-5.258,12.679L360.474,335.498z" fill="#1F4499"/><rect fill="#1F4499" height="7.209" transform="matrix(-0.707 0.7072 -0.7072 -0.707 564.7566 140.7992)" width="7.21" x="249.609" y="183.776"/><rect fill="#1F4499" height="7.21" transform="matrix(0.7071 0.7071 -0.7071 0.7071 202.5441 -134.1097)" width="7.211" x="259.551" y="173.833"/><path d="M212.428,132.755l-3.205,0.669l-0.668,3.205c-3.526,16.906,1.658,34.29,13.87,46.503l10.487,10.486  l4.157,4.158l14.805,32.259l0.666,47.82l19.893,19.894l3.265-3.265l1.663,1.662c2.535,2.535,5.863,3.802,9.192,3.802  s6.658-1.267,9.192-3.802l1.684-1.683c5.068-5.069,5.068-13.315,0-18.384l-1.664-1.664l3.461-3.461l3.75,3.75l3.902-3.901  l3.098,3.099c2.217,2.217,5.131,3.326,8.043,3.326c2.914,0,5.826-1.109,8.045-3.326l3.529-3.53c4.436-4.436,4.436-11.653,0-16.089  l-3.098-3.098l0.318-0.318l3.098,3.098c2.219,2.219,5.131,3.327,8.045,3.327c2.912,0,5.826-1.108,8.043-3.327l3.53-3.529l0,0  c4.435-4.436,4.435-11.652,0-16.088l-3.098-3.098l4.05-4.05l-3.75-3.751l3.461-3.46l1.663,1.663  c2.534,2.534,5.863,3.802,9.192,3.802s6.658-1.268,9.193-3.802l1.684-1.684c5.067-5.069,5.067-13.316-0.001-18.385l-1.663-1.663  l3.563-3.563l-19.893-19.893l-47.821-0.665l-33.274-15.271l-3.657-3.658l-10.247-10.246  C246.719,134.414,229.336,129.229,212.428,132.755z M217.791,141.991c9.269-1.16,18.539,0.877,26.392,5.671l-20.721,20.721  C218.668,160.53,216.63,151.259,217.791,141.991z M252.075,153.912l3.487,3.488l-22.363,22.363l-3.487-3.488L252.075,153.912z   M290.357,287.393l-1.683,1.684c-1.172,1.17-3.074,1.168-4.243,0l-1.663-1.664l5.926-5.926l1.663,1.664  C291.527,284.32,291.527,286.223,290.357,287.393z M288.694,267.344L288.694,267.344l-16.262,16.262l-6.558-6.557l10.858-10.857  l-7.07-7.072l-7.282,7.281l-0.537-38.616l-4.439-9.674l24.304,24.303l6.438,17.461l4.01,4.01L288.694,267.344z M322.521,263.301  l-3.53,3.529c-0.535,0.537-1.408,0.537-1.945,0l-3.098-3.098l5.476-5.475l3.098,3.098  C323.058,261.892,323.058,262.764,322.521,263.301z M342.458,243.365l-3.529,3.529c-0.537,0.535-1.41,0.535-1.945,0l-3.099-3.098  l5.476-5.476l3.098,3.097C342.994,241.955,342.994,242.828,342.458,243.365z M364.853,208.655c1.17,1.17,1.17,3.073,0,4.242  l-1.683,1.684c-1.171,1.169-3.073,1.17-4.243,0.001l-1.664-1.664l5.927-5.926L364.853,208.655z M303.858,185.771l38.617,0.536  l-8.943,8.943l7.072,7.071l12.52-12.521l6.557,6.558l-20.02,20.02l-4.008-4.007l-17.438-6.461l-25.045-25.045L303.858,185.771z   M263.074,164.911l49.616,49.616l17.438,6.461l6.21,6.211l-12.825,12.826l-4.09,4.09l0,0l-11.317,11.316l-5.131,5.131l-6.207-6.207  l-6.438-17.461l-49.473-49.473l-0.588-0.587l22.363-22.363L263.074,164.911z" fill="#1F4499"/><rect fill="#1F4499" height="17.886" transform="matrix(0.7071 0.7071 -0.7071 0.7071 228.0935 -138.9554)" width="10" x="276.781" y="196.913"/><rect fill="#1F4499" height="10" transform="matrix(-0.7071 0.7071 -0.7071 -0.7071 647.6779 161.3236)" width="17.885" x="281.485" y="209.8"/><path d="M411.456,284.113l-7.07-7.072c-6.992,6.992-18.368,6.992-25.359,0l-7.071,7.072  c5.446,5.445,12.599,8.167,19.751,8.167S406.011,289.558,411.456,284.113z" fill="#1F4499"/><rect fill="#1F4499" height="7.211" transform="matrix(-0.707 -0.7072 0.7072 -0.707 569.6096 577.265)" width="7.21" x="400.772" y="167.041"/><rect fill="#1F4499" height="7.21" transform="matrix(-0.7071 0.7071 -0.7071 -0.7071 820.922 -18.6298)" width="7.209" x="410.715" y="157.099"/></svg>